<svg width="1440" height="1024" viewBox="0 0 1440 1024" fill="none" xmlns="http://www.w3.org/2000/svg">
<g clip-path="url(#clip0_26_47)">
<rect width="1440" height="1024" fill="#0C1431"/>
<path d="M-27 980.783C-27 980.323 -26.6861 979.923 -26.2393 979.813L577.382 831.029C577.46 831.01 577.541 831 577.621 831H861.373C861.457 831 861.541 831.011 861.623 831.032L1439.75 979.807C1440.19 979.921 1440.5 980.319 1440.5 980.775V1163.5C1440.5 1164.05 1440.05 1164.5 1439.5 1164.5H-26C-26.5523 1164.5 -27 1164.05 -27 1163.5V980.783Z" fill="#02050F" stroke="black"/>
<path d="M1158 627.051C1158 625.753 1156.78 624.799 1155.52 625.109L1071.94 645.645C1071.09 645.856 1070.47 646.603 1070.42 647.484L1057.59 894.361C1057.54 895.314 1058.17 896.169 1059.09 896.404L1155.51 920.868C1156.77 921.188 1158 920.233 1158 918.929V627.051Z" fill="#EB9A80" stroke="#443324"/>
<path d="M279.165 627.051C279.165 625.753 280.381 624.799 281.642 625.109L365.222 645.645C366.078 645.856 366.696 646.603 366.742 647.484L379.579 894.361C379.629 895.314 378.999 896.169 378.074 896.404L281.656 920.868C280.392 921.188 279.165 920.233 279.165 918.929V627.051Z" fill="#EB9A80" stroke="#443324"/>
<path d="M996 744.388C996 743.67 995.343 743.132 994.639 743.274L947.228 752.818C946.724 752.919 946.35 753.347 946.318 753.86L939.062 868.167C939.027 868.732 939.412 869.237 939.965 869.352L994.632 880.716C995.338 880.862 996 880.324 996 879.603V744.388Z" fill="#EB9A80" stroke="#443324" stroke-width="0.568265"/>
<path d="M441.165 744.388C441.165 743.67 441.822 743.132 442.525 743.274L489.937 752.818C490.441 752.919 490.814 753.347 490.847 753.86L498.102 868.167C498.138 868.732 497.753 869.237 497.199 869.352L442.532 880.716C441.827 880.862 441.165 880.324 441.165 879.603V744.388Z" fill="#EB9A80" stroke="#443324" stroke-width="0.568265"/>
<path d="M890.831 743.139C890.884 742.864 890.758 742.583 890.507 742.46C883.795 739.163 868.997 735.237 860.164 744.513C848.888 756.356 840.39 746.905 838.436 762.493C836.481 778.081 816.459 774.418 829.767 783.732C843.076 793.046 834.167 799.392 838.397 802.49C842.627 805.587 842.769 818.925 854.493 811.904C866.217 804.882 869.237 798.479 875.025 805.663C880.814 812.847 886.012 810.553 890.818 806.23C895.624 801.906 904.886 803.013 909.285 784.102C912.779 769.082 902.56 762.607 896.897 761.204C896.815 761.183 896.742 761.15 896.674 761.097C893.884 758.936 889.028 752.495 890.831 743.139Z" fill="#3E7D76" stroke="#477973" stroke-width="0.309863"/>
<path d="M546.334 743.139C546.281 742.864 546.407 742.583 546.658 742.46C553.37 739.163 568.168 735.237 577.001 744.513C588.277 756.356 596.775 746.905 598.73 762.493C600.684 778.081 620.706 774.418 607.398 783.732C594.089 793.046 602.998 799.392 598.768 802.49C594.538 805.587 594.396 818.925 582.672 811.904C570.948 804.882 567.928 798.479 562.14 805.663C556.351 812.847 551.153 810.553 546.347 806.23C541.541 801.906 532.279 803.013 527.88 784.102C524.386 769.082 534.605 762.607 540.268 761.204C540.35 761.183 540.423 761.15 540.491 761.097C543.281 758.936 548.137 752.495 546.334 743.139Z" fill="#3E7D76" stroke="#477973" stroke-width="0.309863"/>
<path d="M939 754.5L890.274 765.82C889.821 765.926 889.5 766.329 889.5 766.794V846.319C889.5 846.73 889.751 847.099 890.133 847.25L939 866.5V754.5Z" fill="#AF454B"/>
<path d="M946 761.436C946 761.158 945.884 760.892 945.68 760.703L939 754.5V866.5H945C945.552 866.5 946 866.052 946 865.5V761.436Z" fill="#B14B52"/>
<path d="M939 754.5L945.68 760.703C945.884 760.892 946 761.158 946 761.436V865.5C946 866.052 945.552 866.5 945 866.5H939M939 754.5L890.274 765.82C889.821 765.926 889.5 766.329 889.5 766.794V846.319C889.5 846.73 889.751 847.099 890.133 847.25L939 866.5M939 754.5V866.5" stroke="#616161"/>
<path d="M498.165 754.5L546.891 765.82C547.344 765.926 547.665 766.329 547.665 766.794V846.319C547.665 846.73 547.413 847.099 547.031 847.25L498.165 866.5V754.5Z" fill="#AF454B"/>
<path d="M491.165 761.436C491.165 761.158 491.28 760.892 491.484 760.703L498.165 754.5V866.5H492.165C491.612 866.5 491.165 866.052 491.165 865.5V761.436Z" fill="#B14B52"/>
<path d="M498.165 754.5L491.484 760.703C491.28 760.892 491.165 761.158 491.165 761.436V865.5C491.165 866.052 491.612 866.5 492.165 866.5H498.165M498.165 754.5L546.891 765.82C547.344 765.926 547.665 766.329 547.665 766.794V846.319C547.665 846.73 547.413 847.099 547.031 847.25L498.165 866.5M498.165 754.5V866.5" stroke="#616161"/>
<path d="M952.291 739.159C952.115 739.193 951.966 739.307 951.888 739.468L935.514 773.096C935.322 773.491 935.631 773.945 936.069 773.911L943.291 773.358L957.478 738.158L952.291 739.159Z" fill="#8B5625"/>
<path d="M957.478 738.158L943.291 773.358L951.046 772.763L964.767 736.751L957.478 738.158Z" fill="#D7763F"/>
<path d="M964.767 736.751L951.046 772.763L959.713 772.099L972.966 735.169L964.767 736.751Z" fill="#8B5625"/>
<path d="M972.966 735.169L959.713 772.099L967.924 771.469L980.255 733.762L972.966 735.169Z" fill="#D7763F"/>
<path d="M980.255 733.762L967.924 771.469L977.503 770.735L988.909 732.092L980.255 733.762Z" fill="#8B5625"/>
<path d="M988.909 732.092L977.503 770.735L986.626 770.035L997.564 730.421L988.909 732.092Z" fill="#D7763F"/>
<path d="M997.564 730.421L986.626 770.035L995.75 769.336L1005.31 728.927L997.564 730.421Z" fill="#8B5625"/>
<path d="M957.478 738.158L952.291 739.159C952.115 739.193 951.966 739.307 951.888 739.468L935.514 773.096C935.322 773.491 935.631 773.945 936.069 773.911L943.291 773.358M957.478 738.158L943.291 773.358M957.478 738.158L964.767 736.751M943.291 773.358L951.046 772.763M964.767 736.751L951.046 772.763M964.767 736.751L972.966 735.169M951.046 772.763L959.713 772.099M972.966 735.169L959.713 772.099M972.966 735.169L980.255 733.762M959.713 772.099L967.924 771.469M980.255 733.762L967.924 771.469M980.255 733.762L988.909 732.092M967.924 771.469L977.503 770.735M988.909 732.092L977.503 770.735M988.909 732.092L997.564 730.421M977.503 770.735L986.626 770.035M997.564 730.421L986.626 770.035M997.564 730.421L1005.31 728.927M986.626 770.035L995.75 769.336M1005.31 728.927L995.75 769.336M1005.31 728.927L1016.47 726.773M995.75 769.336L1004.42 768.672M1016.47 726.773L1026.67 724.804C1027.1 724.721 1027.46 725.13 1027.32 725.542L1013.2 767.65C1013.13 767.867 1012.94 768.019 1012.71 768.036L1004.42 768.672M1016.47 726.773L1004.42 768.672" stroke="#616161" stroke-width="0.568265"/>
<path d="M484.874 739.159C485.049 739.193 485.199 739.307 485.277 739.468L501.65 773.096C501.842 773.491 501.534 773.945 501.096 773.911L493.873 773.358L479.686 738.158L484.874 739.159Z" fill="#8B5625"/>
<path d="M479.686 738.158L493.873 773.358L486.119 772.763L472.398 736.751L479.686 738.158Z" fill="#D7763F"/>
<path d="M472.398 736.751L486.119 772.763L477.452 772.099L464.198 735.169L472.398 736.751Z" fill="#8B5625"/>
<path d="M464.198 735.169L477.452 772.099L469.241 771.469L456.91 733.762L464.198 735.169Z" fill="#D7763F"/>
<path d="M456.91 733.762L469.241 771.469L459.661 770.735L448.255 732.092L456.91 733.762Z" fill="#8B5625"/>
<path d="M448.255 732.092L459.661 770.735L450.538 770.035L439.6 730.421L448.255 732.092Z" fill="#D7763F"/>
<path d="M439.6 730.421L450.538 770.035L441.415 769.336L431.856 728.927L439.6 730.421Z" fill="#8B5625"/>
<path d="M479.686 738.158L484.874 739.159C485.049 739.193 485.199 739.307 485.277 739.468L501.65 773.096C501.842 773.491 501.534 773.945 501.096 773.911L493.873 773.358M479.686 738.158L493.873 773.358M479.686 738.158L472.398 736.751M493.873 773.358L486.119 772.763M472.398 736.751L486.119 772.763M472.398 736.751L464.198 735.169M486.119 772.763L477.452 772.099M464.198 735.169L477.452 772.099M464.198 735.169L456.91 733.762M477.452 772.099L469.241 771.469M456.91 733.762L469.241 771.469M456.91 733.762L448.255 732.092M469.241 771.469L459.661 770.735M448.255 732.092L459.661 770.735M448.255 732.092L439.6 730.421M459.661 770.735L450.538 770.035M439.6 730.421L450.538 770.035M439.6 730.421L431.856 728.927M450.538 770.035L441.415 769.336M431.856 728.927L441.415 769.336M431.856 728.927L420.696 726.773M441.415 769.336L432.748 768.672M420.696 726.773L410.492 724.804C410.064 724.721 409.707 725.13 409.845 725.542L423.961 767.65C424.034 767.867 424.229 768.019 424.457 768.036L432.748 768.672M420.696 726.773L432.748 768.672" stroke="#616161" stroke-width="0.568265"/>
<path d="M1061.36 897.103C1063.23 897.563 1065.04 896.173 1065.08 894.251L1069.5 676.5L995.999 715V878.65C995.999 880.03 996.941 881.232 998.282 881.563L1061.36 897.103Z" fill="#DD6D73"/>
<path d="M995.999 715L1069.5 676.5C1069.5 666.5 1027.5 678.5 1020.5 681.5C1016.6 683.171 977.999 710 995.999 715Z" fill="#CF9D6F"/>
<path d="M1069.5 676.5L1065.08 894.251C1065.04 896.173 1063.23 897.563 1061.36 897.103L998.282 881.563C996.941 881.232 995.999 880.03 995.999 878.65V715M1069.5 676.5L995.999 715M1069.5 676.5C1069.5 666.5 1027.5 678.5 1020.5 681.5C1016.6 683.171 977.999 710 995.999 715" stroke="#292929"/>
<path d="M375.806 897.103C373.939 897.563 372.128 896.173 372.088 894.251L367.665 676.5L441.165 715V878.65C441.165 880.03 440.223 881.232 438.882 881.563L375.806 897.103Z" fill="#DD6D73"/>
<path d="M441.165 715L367.665 676.5C367.665 666.5 409.665 678.5 416.665 681.5C420.564 683.171 459.165 710 441.165 715Z" fill="#CF9D6F"/>
<path d="M367.665 676.5L372.088 894.251C372.128 896.173 373.939 897.563 375.806 897.103L438.882 881.563C440.223 881.232 441.165 880.03 441.165 878.65V715M367.665 676.5L441.165 715M367.665 676.5C367.665 666.5 409.665 678.5 416.665 681.5C420.564 683.171 459.165 710 441.165 715" stroke="#292929"/>
<path d="M1071.4 645.309C1071.08 645.406 1070.83 645.658 1070.73 645.979L1053.06 705.065C1052.85 705.753 1053.42 706.427 1054.13 706.345L1061.61 705.477L1076.87 643.652L1071.4 645.309Z" fill="#8B5625"/>
<path d="M1076.87 643.652L1061.61 705.477L1070.1 704.493L1084.84 641.235L1076.87 643.652Z" fill="#D7763F"/>
<path d="M1084.84 641.235L1070.1 704.493L1079.59 703.394L1093.81 638.516L1084.84 641.235Z" fill="#8B5625"/>
<path d="M1093.81 638.516L1079.59 703.394L1088.57 702.352L1101.78 636.099L1093.81 638.516Z" fill="#D7763F"/>
<path d="M1101.78 636.099L1088.57 702.352L1099.06 701.136L1111.24 633.229L1101.78 636.099Z" fill="#8B5625"/>
<path d="M1111.24 633.229L1099.06 701.136L1109.05 699.978L1120.71 630.359L1111.24 633.229Z" fill="#D7763F"/>
<path d="M1120.71 630.359L1109.05 699.978L1119.03 698.82L1129.18 627.791L1120.71 630.359Z" fill="#8B5625"/>
<path d="M1076.87 643.652L1071.4 645.309C1071.08 645.406 1070.83 645.658 1070.73 645.979L1053.06 705.065C1052.85 705.753 1053.42 706.427 1054.13 706.345L1061.61 705.477M1076.87 643.652L1061.61 705.477M1076.87 643.652L1084.84 641.235M1061.61 705.477L1070.1 704.493M1084.84 641.235L1070.1 704.493M1084.84 641.235L1093.81 638.516M1070.1 704.493L1079.59 703.394M1093.81 638.516L1079.59 703.394M1093.81 638.516L1101.78 636.099M1079.59 703.394L1088.57 702.352M1101.78 636.099L1088.57 702.352M1101.78 636.099L1111.24 633.229M1088.57 702.352L1099.06 701.136M1111.24 633.229L1099.06 701.136M1111.24 633.229L1120.71 630.359M1099.06 701.136L1109.05 699.978M1120.71 630.359L1109.05 699.978M1120.71 630.359L1129.18 627.791M1109.05 699.978L1119.03 698.82M1129.18 627.791L1119.03 698.82M1129.18 627.791L1141.39 624.09M1119.03 698.82L1128.52 697.72M1141.39 624.09L1151.99 620.876C1152.71 620.656 1153.41 621.291 1153.26 622.033L1138.15 695.911C1138.07 696.334 1137.72 696.654 1137.29 696.704L1128.52 697.72M1141.39 624.09L1128.52 697.72" stroke="#616161"/>
<path d="M365.761 645.309C366.082 645.406 366.333 645.658 366.429 645.979L384.107 705.065C384.313 705.753 383.747 706.427 383.034 706.345L375.554 705.477L360.297 643.652L365.761 645.309Z" fill="#8B5625"/>
<path d="M360.297 643.652L375.554 705.477L367.065 704.493L352.325 641.235L360.297 643.652Z" fill="#D7763F"/>
<path d="M352.325 641.235L367.065 704.493L357.578 703.394L343.357 638.516L352.325 641.235Z" fill="#8B5625"/>
<path d="M343.357 638.516L357.578 703.394L348.59 702.352L335.386 636.099L343.357 638.516Z" fill="#D7763F"/>
<path d="M335.386 636.099L348.59 702.352L338.104 701.136L325.919 633.229L335.386 636.099Z" fill="#8B5625"/>
<path d="M325.919 633.229L338.104 701.136L328.117 699.978L316.453 630.359L325.919 633.229Z" fill="#D7763F"/>
<path d="M316.453 630.359L328.117 699.978L318.13 698.82L307.984 627.791L316.453 630.359Z" fill="#8B5625"/>
<path d="M360.297 643.652L365.761 645.309C366.082 645.406 366.333 645.658 366.429 645.979L384.107 705.065C384.313 705.753 383.747 706.427 383.034 706.345L375.554 705.477M360.297 643.652L375.554 705.477M360.297 643.652L352.325 641.235M375.554 705.477L367.065 704.493M352.325 641.235L367.065 704.493M352.325 641.235L343.357 638.516M367.065 704.493L357.578 703.394M343.357 638.516L357.578 703.394M343.357 638.516L335.386 636.099M357.578 703.394L348.59 702.352M335.386 636.099L348.59 702.352M335.386 636.099L325.919 633.229M348.59 702.352L338.104 701.136M325.919 633.229L338.104 701.136M325.919 633.229L316.453 630.359M338.104 701.136L328.117 699.978M316.453 630.359L328.117 699.978M316.453 630.359L307.984 627.791M328.117 699.978L318.13 698.82M307.984 627.791L318.13 698.82M307.984 627.791L295.777 624.09M318.13 698.82L308.643 697.72M295.777 624.09L285.177 620.876C284.452 620.656 283.755 621.291 283.907 622.033L299.01 695.911C299.097 696.334 299.445 696.654 299.875 696.704L308.643 697.72M295.777 624.09L308.643 697.72" stroke="#616161"/>
<path d="M1307.5 521V955L1421.42 917.189C1422.66 916.779 1423.49 915.616 1423.48 914.312L1420 567L1307.5 521Z" fill="#DF92AC"/>
<path d="M1307.5 521L1112.5 592.5L1131.86 914.236C1131.94 915.575 1132.9 916.698 1134.22 916.986L1307.5 955V521Z" fill="#C57C95"/>
<path d="M1112.5 592.5L1307.5 521L1420 567L1426.85 554.913C1427.73 553.359 1427.07 551.383 1425.42 550.678L1308.6 500.471C1307.89 500.169 1307.1 500.147 1306.38 500.411L1110.57 572.24C1109.34 572.692 1108.54 573.892 1108.61 575.203L1109.35 590.341C1109.42 591.928 1110.99 593.002 1112.5 592.5V592.5Z" fill="white"/>
<path d="M1112.5 592.5L1307.5 521M1112.5 592.5L1131.86 914.236C1131.94 915.575 1132.9 916.698 1134.22 916.986L1307.5 955M1112.5 592.5V592.5C1110.99 593.002 1109.42 591.928 1109.35 590.341L1108.61 575.203C1108.54 573.892 1109.34 572.692 1110.57 572.24L1306.38 500.411C1307.1 500.147 1307.89 500.169 1308.6 500.471L1425.42 550.678C1427.07 551.383 1427.73 553.359 1426.85 554.913L1420 567M1307.5 521V955M1307.5 521L1420 567M1307.5 955L1421.42 917.189C1422.66 916.779 1423.49 915.616 1423.48 914.312L1420 567" stroke="white"/>
<path d="M129.665 521V955L15.7413 917.189C14.5039 916.779 13.6734 915.616 13.6865 914.312L17.1646 567L129.665 521Z" fill="#DF92AC"/>
<path d="M129.665 521L324.665 592.5L305.301 914.236C305.22 915.575 304.26 916.698 302.949 916.986L129.665 955V521Z" fill="#C57C95"/>
<path d="M324.665 592.5L129.665 521L17.1646 567L10.3154 554.913C9.43444 553.359 10.0993 551.383 11.7409 550.678L128.568 500.471C129.272 500.169 130.066 500.147 130.785 500.411L326.594 572.24C327.826 572.692 328.621 573.892 328.557 575.203L327.819 590.341C327.741 591.928 326.171 593.002 324.665 592.5V592.5Z" fill="white"/>
<path d="M324.665 592.5L129.665 521M324.665 592.5L305.301 914.236C305.22 915.575 304.26 916.698 302.949 916.986L129.665 955M324.665 592.5V592.5C326.171 593.002 327.741 591.928 327.819 590.341L328.557 575.203C328.621 573.892 327.826 572.692 326.594 572.24L130.785 500.411C130.066 500.147 129.272 500.169 128.568 500.471L11.7409 550.678C10.0993 551.383 9.43444 553.359 10.3154 554.913L17.1646 567M129.665 521V955M129.665 521L17.1646 567M129.665 955L15.7413 917.189C14.5039 916.779 13.6734 915.616 13.6865 914.312L17.1646 567" stroke="white"/>
<path d="M1022 723.886C1022 722.49 1020.61 721.523 1019.3 722.013L1014 724V745.375L1022 742.75V723.886Z" fill="#D9D9D9"/>
<path d="M1014 724L1007.3 726.513C1006.52 726.806 1006 727.552 1006 728.386V748L1014 745.375V724Z" fill="#D9D9D9"/>
<path d="M1006 766.36C1006 767.685 1007.27 768.644 1008.54 768.285L1014 766.75V745.375L1006 748V766.36Z" fill="#D9D9D9"/>
<path d="M1014 766.75L1020.54 764.91C1021.4 764.668 1022 763.881 1022 762.985V742.75L1014 745.375V766.75Z" fill="#D9D9D9"/>
<path d="M1014 766.75L1020.54 764.91C1021.4 764.668 1022 763.881 1022 762.985V742.75M1014 766.75L1008.54 768.285C1007.27 768.644 1006 767.685 1006 766.36V748M1014 766.75V745.375M1014 724L1007.3 726.513C1006.52 726.806 1006 727.552 1006 728.386V748M1014 724L1019.3 722.013C1020.61 721.523 1022 722.49 1022 723.886V742.75M1014 724V745.375M1006 748L1014 745.375M1022 742.75L1014 745.375" stroke="#292929"/>
<path d="M415.165 723.886C415.165 722.49 416.559 721.523 417.867 722.013L423.165 724V745.375L415.165 742.75V723.886Z" fill="#D9D9D9"/>
<path d="M423.165 724L429.867 726.513C430.647 726.806 431.165 727.552 431.165 728.386V748L423.165 745.375V724Z" fill="#D9D9D9"/>
<path d="M431.165 766.36C431.165 767.685 429.899 768.644 428.623 768.285L423.165 766.75V745.375L431.165 748V766.36Z" fill="#D9D9D9"/>
<path d="M423.165 766.75L416.623 764.91C415.76 764.668 415.165 763.881 415.165 762.985V742.75L423.165 745.375V766.75Z" fill="#D9D9D9"/>
<path d="M423.165 766.75L416.623 764.91C415.76 764.668 415.165 763.881 415.165 762.985V742.75M423.165 766.75L428.623 768.285C429.899 768.644 431.165 767.685 431.165 766.36V748M423.165 766.75V745.375M423.165 724L429.867 726.513C430.647 726.806 431.165 727.552 431.165 728.386V748M423.165 724L417.867 722.013C416.559 721.523 415.165 722.49 415.165 723.886V742.75M423.165 724V745.375M431.165 748L423.165 745.375M415.165 742.75L423.165 745.375" stroke="#292929"/>
<path d="M1053 713.971C1053 712.552 1051.56 711.584 1050.25 712.118L1045 714.25V737.406L1053 734.563V713.971Z" fill="#D9D9D9"/>
<path d="M1045 714.25L1038.25 716.993C1037.49 717.3 1037 718.032 1037 718.846V740.25L1045 737.406V714.25Z" fill="#D9D9D9"/>
<path d="M1037 760.3C1037 761.643 1038.3 762.605 1039.58 762.213L1045 760.563V737.406L1037 740.25V760.3Z" fill="#D9D9D9"/>
<path d="M1045 760.563L1051.58 758.557C1052.42 758.3 1053 757.524 1053 756.644V734.563L1045 737.406V760.563Z" fill="#D9D9D9"/>
<path d="M1045 760.563L1051.58 758.557C1052.42 758.3 1053 757.524 1053 756.644V734.563M1045 760.563L1039.58 762.213C1038.3 762.605 1037 761.643 1037 760.3V740.25M1045 760.563V737.406M1045 714.25L1038.25 716.993C1037.49 717.3 1037 718.032 1037 718.846V740.25M1045 714.25L1050.25 712.118C1051.56 711.584 1053 712.552 1053 713.971V734.563M1045 714.25V737.406M1037 740.25L1045 737.406M1053 734.563L1045 737.406" stroke="#292929"/>
<path d="M384.165 713.971C384.165 712.552 385.602 711.584 386.917 712.118L392.165 714.25V737.406L384.165 734.563V713.971Z" fill="#D9D9D9"/>
<path d="M392.165 714.25L398.917 716.993C399.671 717.3 400.165 718.032 400.165 718.846V740.25L392.165 737.406V714.25Z" fill="#D9D9D9"/>
<path d="M400.165 760.3C400.165 761.643 398.867 762.605 397.582 762.213L392.165 760.563V737.406L400.165 740.25V760.3Z" fill="#D9D9D9"/>
<path d="M392.165 760.563L385.582 758.557C384.74 758.3 384.165 757.524 384.165 756.644V734.563L392.165 737.406V760.563Z" fill="#D9D9D9"/>
<path d="M392.165 760.563L385.582 758.557C384.74 758.3 384.165 757.524 384.165 756.644V734.563M392.165 760.563L397.582 762.213C398.867 762.605 400.165 761.643 400.165 760.3V740.25M392.165 760.563V737.406M392.165 714.25L398.917 716.993C399.671 717.3 400.165 718.032 400.165 718.846V740.25M392.165 714.25L386.917 712.118C385.602 711.584 384.165 712.552 384.165 713.971V734.563M392.165 714.25V737.406M400.165 740.25L392.165 737.406M384.165 734.563L392.165 737.406" stroke="#292929"/>
<path d="M1461.25 662.022C1461.39 661.129 1460.95 660.238 1460.12 659.869C1438.09 650.012 1389.91 639.063 1362.5 670C1327.5 709.5 1299 680 1294.5 730.5C1290 781 1225 771.5 1269 800C1313 828.5 1285 850 1299 859.5C1313 869 1315 912 1352 888C1389 864 1398 843 1417.5 865.5C1437 888 1453.5 880 1468.5 865.5C1483.5 851 1513.5 853.5 1525.5 792C1535.03 743.155 1501.33 723.451 1482.9 719.582C1482.63 719.525 1482.39 719.425 1482.17 719.265C1472.92 712.618 1456.51 692.404 1461.25 662.022Z" fill="#3E7D76" stroke="#477973"/>
<path d="M-23.082 665.022C-23.2213 664.129 -22.7824 663.238 -21.9569 662.869C0.0707912 653.012 48.2515 642.063 75.6645 673C110.664 712.5 139.164 683 143.664 733.5C148.164 784 213.164 774.5 169.164 803C125.164 831.5 153.164 853 139.164 862.5C125.164 872 123.164 915 86.1644 891C49.1644 867 40.1644 846 20.6644 868.5C1.16443 891 -15.3356 883 -30.3356 868.5C-45.3356 854 -75.3356 856.5 -87.3356 795C-96.8664 746.155 -63.1608 726.451 -44.7346 722.582C-44.4656 722.525 -44.2267 722.425 -44.0034 722.265C-34.7534 715.618 -18.3482 695.404 -23.082 665.022Z" fill="#3E7D76" stroke="#477973"/>
<path d="M1460.12 892.908C1460.05 892.394 1459.62 892.015 1459.1 892.037C1437.86 892.941 1392.43 896.719 1373.5 905C1349.5 915.5 1341 914.5 1315 923.5C1289 932.5 1248.5 944 1263 961.5C1274.53 975.419 1405.32 980.607 1470.38 981.485C1470.98 981.493 1471.43 980.961 1471.35 980.358L1460.12 892.908Z" fill="#D9D9D9" stroke="#616161"/>
<path d="M-17.6167 892.908C-17.5506 892.394 -17.1208 892.015 -16.603 892.037C4.63914 892.941 50.0709 896.719 69 905C93 915.5 101.5 914.5 127.5 923.5C153.5 932.5 194 944 179.5 961.5C167.967 975.419 37.1842 980.607 -27.8772 981.485C-28.4852 981.493 -28.9307 980.961 -28.8532 980.358L-17.6167 892.908Z" fill="#D9D9D9" stroke="#616161"/>
<path d="M1395.98 837.275C1394.35 836.769 1392.42 838.115 1392.68 839.808C1399.1 881.111 1407.06 958.005 1392 966.5C1379.03 973.815 1369.08 979.333 1363.99 982.136C1362.78 982.803 1362.59 984.469 1363.63 985.389L1365.06 986.665C1365.63 987.175 1366.45 987.312 1367.16 987.015L1402.73 972.157C1404.05 971.607 1405.5 972.575 1405.5 974.003V984.5C1405.5 985.605 1406.4 986.5 1407.5 986.5H1410.74C1411.75 986.5 1412.6 985.753 1412.73 984.756L1414.16 973.62C1414.33 972.305 1415.71 971.515 1416.92 972.043C1428.77 977.19 1448.5 986.388 1448.5 989C1448.5 991.469 1452.13 986.346 1454.58 982.472C1455.12 981.631 1454.93 980.53 1454.16 979.898L1430.52 960.429C1430.18 960.151 1429.95 959.783 1429.85 959.356C1425.4 939.899 1421.2 898.219 1439 882C1456.7 865.874 1447.49 868.408 1440.36 871.825C1440.12 871.94 1439.91 872.103 1439.73 872.303L1429.87 883.576C1428.61 885.013 1426.25 884.039 1426.37 882.133L1429.29 835.808C1429.39 834.306 1427.85 833.226 1426.44 833.765C1418.48 836.817 1405.36 840.171 1395.98 837.275Z" fill="#D29965" stroke="#443324"/>
<path d="M42.1823 840.275C43.8186 839.769 45.7432 841.115 45.4803 842.808C39.0633 884.111 31.1054 961.005 46.1646 969.5C59.1312 976.815 69.081 982.333 74.1762 985.136C75.3893 985.803 75.5742 987.469 74.5394 988.389L73.1042 989.665C72.5298 990.175 71.7137 990.312 71.0045 990.015L35.4354 975.157C34.1178 974.607 32.6646 975.575 32.6646 977.003V987.5C32.6646 988.605 31.7691 989.5 30.6646 989.5H27.4231C26.4174 989.5 25.5682 988.753 25.4395 987.756L24.0026 976.62C23.833 975.305 22.4575 974.515 21.2414 975.043C9.39259 980.19 -10.3354 989.388 -10.3354 992C-10.3354 994.469 -13.9626 989.346 -16.4203 985.472C-16.9534 984.631 -16.765 983.53 -15.9968 982.898L7.64326 963.429C7.98141 963.151 8.21602 962.783 8.31364 962.356C12.7612 942.899 16.9657 901.219 -0.835449 885C-18.5344 868.874 -9.32328 871.408 -2.19717 874.825C-1.95732 874.94 -1.74523 875.103 -1.57008 875.303L8.29337 886.576C9.55081 888.013 11.9147 887.039 11.7946 885.133L8.87317 838.808C8.77842 837.306 10.3157 836.226 11.7214 836.765C19.6809 839.817 32.8033 843.171 42.1823 840.275Z" fill="#D29965" stroke="#443324"/>
<path d="M868.676 796.684C868.175 796.509 867.564 796.905 867.626 797.432C869.155 810.293 870.765 834.193 866.008 836.656C861.911 838.777 858.769 840.376 857.16 841.187C856.777 841.38 856.701 841.894 857.011 842.191L857.442 842.602C857.614 842.766 857.865 842.817 858.088 842.733L869.267 838.527C869.682 838.372 870.121 838.687 870.105 839.13L869.988 842.38C869.976 842.722 870.244 843.009 870.586 843.022L871.589 843.058C871.901 843.069 872.172 842.847 872.223 842.54L872.792 839.107C872.859 838.702 873.293 838.472 873.664 838.65C877.276 840.375 883.283 843.442 883.254 844.251C883.227 845.015 884.407 843.469 885.211 842.297C885.385 842.043 885.339 841.7 885.108 841.495L878.004 835.204C877.902 835.114 877.834 834.998 877.808 834.864C876.647 828.79 875.808 815.836 881.5 811.011C887.16 806.214 884.279 806.897 882.035 807.876C881.959 807.909 881.892 807.957 881.835 808.017L878.656 811.398C878.251 811.829 877.529 811.501 877.588 810.912L879.007 796.6C879.053 796.135 878.589 795.784 878.147 795.935C875.649 796.792 871.548 797.685 868.676 796.684Z" fill="#D29965" stroke="#443324" stroke-width="0.309863"/>
<path d="M568.489 796.684C568.99 796.509 569.601 796.905 569.539 797.432C568.01 810.293 566.4 834.193 571.157 836.656C575.254 838.777 578.396 840.376 580.005 841.187C580.388 841.38 580.464 841.894 580.154 842.191L579.723 842.602C579.551 842.766 579.3 842.817 579.077 842.733L567.898 838.527C567.483 838.372 567.044 838.687 567.06 839.13L567.177 842.38C567.189 842.722 566.921 843.009 566.579 843.022L565.576 843.058C565.264 843.069 564.993 842.847 564.942 842.54L564.373 839.107C564.306 838.702 563.872 838.472 563.501 838.65C559.889 840.375 553.882 843.442 553.911 844.251C553.938 845.015 552.758 843.469 551.954 842.297C551.78 842.043 551.826 841.7 552.057 841.495L559.161 835.204C559.263 835.114 559.331 834.998 559.357 834.864C560.518 828.79 561.357 815.836 555.665 811.011C550.005 806.214 552.886 806.897 555.13 807.876C555.206 807.909 555.273 807.957 555.33 808.017L558.509 811.398C558.915 811.829 559.636 811.501 559.577 810.912L558.158 796.6C558.112 796.135 558.576 795.784 559.018 795.935C561.516 796.792 565.617 797.685 568.489 796.684Z" fill="#D29965" stroke="#443324" stroke-width="0.309863"/>
<ellipse cx="721.5" cy="767" rx="123.5" ry="94" fill="url(#paint0_radial_26_47)"/>
<path d="M710.348 759.429C710.236 758.996 710.563 758.574 711.01 758.574H729.423C729.866 758.574 730.192 758.988 730.088 759.418L725.633 777.874C725.559 778.181 725.284 778.397 724.968 778.397H715.783C715.471 778.397 715.199 778.186 715.121 777.885L710.348 759.429Z" fill="#F1E71D" stroke="#616161" stroke-width="0.683543"/>
<path d="M712.021 756.865C711.579 756.865 711.253 756.447 711.381 756.023C714.444 745.848 725.991 745.551 729.357 756.009C729.495 756.436 729.169 756.865 728.72 756.865H712.021Z" fill="#555555" stroke="#616161" stroke-width="0.683543"/>
<path d="M722.749 747.412C720.911 743.286 718.867 745.256 717.734 747.399C717.507 747.829 717.836 748.321 718.322 748.321H722.138C722.612 748.321 722.942 747.845 722.749 747.412Z" fill="#F1E71D" stroke="#616161" stroke-width="0.683543"/>
<rect x="713.202" y="865.549" width="13.6709" height="24.6075" fill="#D9D9D9"/>
<rect x="705" y="890.156" width="30.0759" height="8.20251" fill="#616161"/>
<rect x="716.62" y="801.296" width="7.51897" height="64.253" fill="#616161"/>
<rect x="714.569" y="796.511" width="11.6202" height="5.46834" fill="#D9D9D9"/>
<rect x="718.671" y="780.106" width="4.10126" height="16.405" fill="#616161"/>
<rect x="714.569" y="777.372" width="11.6202" height="3.41771" fill="#D9D9D9"/>
<rect x="709.102" y="756.866" width="22.5569" height="2.73417" fill="#D9D9D9"/>
<path d="M625.504 381.77C622.937 381.77 621.024 380.907 619.764 379.18C618.55 377.407 617.757 375.237 617.384 372.67C617.15 370.803 616.777 368.937 616.264 367.07C615.797 365.203 615.027 363.5 613.954 361.96C612.927 360.373 611.457 359.113 609.544 358.18C607.677 357.247 605.227 356.78 602.194 356.78H599.184V371.69C599.184 373.977 599.347 375.633 599.674 376.66C600 377.64 600.607 378.293 601.494 378.62C602.38 378.9 603.617 379.133 605.204 379.32L606.604 379.46V381.21L596.244 381H596.174L585.814 381.21V379.46L587.214 379.32C588.847 379.133 590.084 378.9 590.924 378.62C591.81 378.293 592.417 377.64 592.744 376.66C593.07 375.633 593.234 373.977 593.234 371.69V340.61C593.234 338.277 593.07 336.62 592.744 335.64C592.417 334.66 591.81 334.03 590.924 333.75C590.084 333.423 588.847 333.167 587.214 332.98L585.814 332.84V331.09L596.174 331.3H605.974C609.147 331.3 612.087 331.673 614.794 332.42C617.5 333.12 619.67 334.357 621.304 336.13C622.984 337.903 623.824 340.377 623.824 343.55C623.824 346.35 623.194 348.637 621.934 350.41C620.72 352.137 619.087 353.467 617.034 354.4C615.027 355.287 612.834 355.917 610.454 356.29C613.907 356.523 616.707 357.713 618.854 359.86C621.047 361.96 622.447 365.063 623.054 369.17C623.474 371.783 623.987 373.837 624.594 375.33C625.247 376.777 625.947 377.803 626.694 378.41C627.487 378.97 628.28 379.25 629.074 379.25C629.587 379.25 630.077 379.157 630.544 378.97C631.057 378.783 631.5 378.597 631.874 378.41L632.364 380.16C631.617 380.533 630.614 380.883 629.354 381.21C628.094 381.583 626.81 381.77 625.504 381.77ZM606.114 333.12H599.184V354.89H605.064C609.544 354.89 612.67 353.98 614.444 352.16C616.264 350.34 617.174 347.61 617.174 343.97C617.174 340.517 616.357 337.857 614.724 335.99C613.09 334.077 610.22 333.12 606.114 333.12ZM650.166 381.77C647.086 381.77 644.402 381.117 642.116 379.81C639.829 378.457 638.032 376.613 636.726 374.28C635.466 371.9 634.836 369.193 634.836 366.16C634.836 362.893 635.536 360 636.936 357.48C638.336 354.913 640.202 352.907 642.536 351.46C644.916 349.967 647.529 349.22 650.376 349.22C653.969 349.22 656.769 350.363 658.776 352.65C660.829 354.937 661.856 357.947 661.856 361.68C661.856 362.24 661.832 362.707 661.786 363.08C661.739 363.453 661.692 363.71 661.646 363.85H640.506C640.459 364.503 640.436 365.157 640.436 365.81C640.436 368.283 640.832 370.593 641.626 372.74C642.419 374.84 643.609 376.52 645.196 377.78C646.829 379.04 648.812 379.67 651.146 379.67C653.339 379.67 655.276 379.063 656.956 377.85C658.682 376.59 660.012 374.747 660.946 372.32L662.626 372.95C660.666 378.83 656.512 381.77 650.166 381.77ZM650.376 350.97C647.482 350.97 645.219 351.997 643.586 354.05C641.999 356.103 641.019 358.833 640.646 362.24H649.536C651.636 362.24 653.222 362.007 654.296 361.54C655.416 361.027 656.162 360.42 656.536 359.72C656.956 358.973 657.166 358.25 657.166 357.55C657.166 355.497 656.466 353.887 655.066 352.72C653.666 351.553 652.102 350.97 650.376 350.97ZM682.685 371.76C681.098 371.76 679.558 371.527 678.065 371.06C676.805 371.34 675.615 371.83 674.495 372.53C673.422 373.183 672.885 374.07 672.885 375.19C672.885 376.17 673.235 376.917 673.935 377.43C674.635 377.897 675.545 378.223 676.665 378.41C677.785 378.55 678.998 378.667 680.305 378.76L683.385 378.9C686.325 379.04 688.985 379.367 691.365 379.88C693.745 380.347 695.635 381.28 697.035 382.68C698.482 384.08 699.205 386.227 699.205 389.12C699.205 391.78 698.412 394.02 696.825 395.84C695.285 397.707 693.255 399.13 690.735 400.11C688.262 401.09 685.578 401.58 682.685 401.58C679.792 401.58 677.038 401.183 674.425 400.39C671.858 399.597 669.758 398.383 668.125 396.75C666.538 395.117 665.745 393.017 665.745 390.45C665.745 388.957 666.095 387.72 666.795 386.74C667.542 385.76 668.498 385.27 669.665 385.27C670.458 385.27 671.135 385.48 671.695 385.9C672.255 386.367 672.535 387.043 672.535 387.93C672.535 388.723 672.395 389.353 672.115 389.82C671.835 390.333 671.532 390.847 671.205 391.36C670.925 391.873 670.785 392.527 670.785 393.32C670.785 394.907 671.322 396.167 672.395 397.1C673.515 398.08 674.962 398.78 676.735 399.2C678.555 399.62 680.538 399.83 682.685 399.83C685.065 399.83 687.258 399.48 689.265 398.78C691.272 398.08 692.882 397.03 694.095 395.63C695.355 394.277 695.985 392.597 695.985 390.59C695.985 388.49 695.145 386.95 693.465 385.97C691.832 385.037 689.288 384.477 685.835 384.29L678.695 383.94C677.295 383.847 675.802 383.66 674.215 383.38C672.675 383.1 671.368 382.517 670.295 381.63C669.222 380.79 668.685 379.507 668.685 377.78C668.685 375.96 669.432 374.373 670.925 373.02C672.465 371.667 674.168 370.733 676.035 370.22C674.168 369.24 672.652 367.91 671.485 366.23C670.318 364.55 669.735 362.637 669.735 360.49C669.735 358.343 670.295 356.43 671.415 354.75C672.582 353.07 674.145 351.74 676.105 350.76C678.065 349.733 680.258 349.22 682.685 349.22C685.485 349.22 687.982 349.897 690.175 351.25C691.155 349.897 692.345 348.94 693.745 348.38C695.145 347.773 696.545 347.47 697.945 347.47C699.392 347.47 700.628 347.843 701.655 348.59C702.728 349.29 703.265 350.247 703.265 351.46C703.265 352.44 702.938 353.21 702.285 353.77C701.678 354.283 701.002 354.54 700.255 354.54C698.528 354.54 697.478 353.56 697.105 351.6C697.012 351.04 696.802 350.573 696.475 350.2C696.195 349.827 695.752 349.64 695.145 349.64C694.398 349.64 693.698 349.92 693.045 350.48C692.438 350.993 691.925 351.553 691.505 352.16C692.765 353.187 693.768 354.423 694.515 355.87C695.262 357.317 695.635 358.857 695.635 360.49C695.635 362.59 695.052 364.503 693.885 366.23C692.765 367.91 691.225 369.263 689.265 370.29C687.305 371.27 685.112 371.76 682.685 371.76ZM682.685 370.01C685.438 370.01 687.375 369.1 688.495 367.28C689.662 365.46 690.245 363.197 690.245 360.49C690.245 357.783 689.662 355.52 688.495 353.7C687.375 351.88 685.438 350.97 682.685 350.97C679.978 350.97 678.042 351.88 676.875 353.7C675.708 355.52 675.125 357.783 675.125 360.49C675.125 363.197 675.708 365.46 676.875 367.28C678.042 369.1 679.978 370.01 682.685 370.01ZM705.765 381.21V379.6L706.885 379.46C708.238 379.273 709.265 379.063 709.965 378.83C710.711 378.55 711.225 377.967 711.505 377.08C711.785 376.147 711.925 374.63 711.925 372.53V357.76C711.925 355.333 711.411 353.793 710.385 353.14C709.405 352.44 708.028 352.09 706.255 352.09H705.765V350.48C707.678 350.48 709.521 350.433 711.295 350.34C713.068 350.2 714.911 349.967 716.825 349.64V372.53C716.825 374.63 716.965 376.147 717.245 377.08C717.525 377.967 718.015 378.55 718.715 378.83C719.461 379.063 720.511 379.273 721.865 379.46L722.985 379.6V381.21L714.375 381L705.765 381.21ZM713.535 341.45C712.321 341.45 711.365 341.03 710.665 340.19C709.965 339.35 709.615 338.347 709.615 337.18C709.615 335.967 709.965 334.963 710.665 334.17C711.365 333.33 712.321 332.91 713.535 332.91C714.888 332.91 715.868 333.33 716.475 334.17C717.128 334.963 717.455 335.967 717.455 337.18C717.455 338.347 717.128 339.35 716.475 340.19C715.868 341.03 714.888 341.45 713.535 341.45ZM738.537 381.77C736.764 381.77 735.247 381.56 733.987 381.14C732.774 380.767 731.817 380.417 731.117 380.09C730.371 379.717 729.904 379.53 729.717 379.53C729.531 379.53 729.367 379.623 729.227 379.81C729.134 379.95 729.017 380.347 728.877 381H727.267L727.547 376.38L727.757 370.43H729.297L729.367 371.62C729.461 372.927 729.881 374.233 730.627 375.54C731.421 376.847 732.494 377.943 733.847 378.83C735.201 379.717 736.764 380.16 738.537 380.16C740.451 380.16 741.991 379.67 743.157 378.69C744.324 377.71 744.907 376.357 744.907 374.63C744.907 373.137 744.301 371.877 743.087 370.85C741.921 369.823 740.287 368.913 738.187 368.12L735.667 367.14C733.241 366.207 731.397 365.04 730.137 363.64C728.924 362.24 728.317 360.443 728.317 358.25C728.317 356.383 728.737 354.797 729.577 353.49C730.464 352.137 731.607 351.087 733.007 350.34C734.454 349.593 735.994 349.22 737.627 349.22C738.794 349.22 739.774 349.36 740.567 349.64C741.407 349.92 742.107 350.2 742.667 350.48C743.134 350.713 743.531 350.83 743.857 350.83C744.324 350.83 744.697 350.34 744.977 349.36L746.517 349.43L746.237 353.98V358.88H744.627C744.301 356.687 743.554 354.797 742.387 353.21C741.221 351.577 739.541 350.76 737.347 350.76C735.807 350.76 734.501 351.25 733.427 352.23C732.401 353.21 731.887 354.447 731.887 355.94C731.887 357.387 732.424 358.6 733.497 359.58C734.617 360.513 736.134 361.353 738.047 362.1L740.777 363.15C743.624 364.223 745.584 365.53 746.657 367.07C747.777 368.563 748.337 370.36 748.337 372.46C748.337 374.933 747.497 377.103 745.817 378.97C744.137 380.837 741.711 381.77 738.537 381.77ZM766.158 381.77C763.871 381.77 762.004 381.093 760.558 379.74C759.158 378.34 758.458 376.077 758.458 372.95V352.23H753.278V350.48L755.168 350.34C757.081 350.2 758.528 349.43 759.508 348.03C760.534 346.583 761.211 344.577 761.538 342.01H763.358V350.48H772.318V352.23H763.358V373.23C763.358 377.337 764.804 379.39 767.698 379.39C768.911 379.39 769.891 378.993 770.638 378.2C771.384 377.36 772.061 376.333 772.668 375.12L774.208 375.89C773.928 376.59 773.578 377.243 773.158 377.85C772.784 378.41 772.411 378.9 772.038 379.32C771.244 380.207 770.334 380.837 769.308 381.21C768.328 381.583 767.278 381.77 766.158 381.77ZM792.695 381.77C789.615 381.77 786.932 381.117 784.645 379.81C782.358 378.457 780.562 376.613 779.255 374.28C777.995 371.9 777.365 369.193 777.365 366.16C777.365 362.893 778.065 360 779.465 357.48C780.865 354.913 782.732 352.907 785.065 351.46C787.445 349.967 790.058 349.22 792.905 349.22C796.498 349.22 799.298 350.363 801.305 352.65C803.358 354.937 804.385 357.947 804.385 361.68C804.385 362.24 804.362 362.707 804.315 363.08C804.268 363.453 804.222 363.71 804.175 363.85H783.035C782.988 364.503 782.965 365.157 782.965 365.81C782.965 368.283 783.362 370.593 784.155 372.74C784.948 374.84 786.138 376.52 787.725 377.78C789.358 379.04 791.342 379.67 793.675 379.67C795.868 379.67 797.805 379.063 799.485 377.85C801.212 376.59 802.542 374.747 803.475 372.32L805.155 372.95C803.195 378.83 799.042 381.77 792.695 381.77ZM792.905 350.97C790.012 350.97 787.748 351.997 786.115 354.05C784.528 356.103 783.548 358.833 783.175 362.24H792.065C794.165 362.24 795.752 362.007 796.825 361.54C797.945 361.027 798.692 360.42 799.065 359.72C799.485 358.973 799.695 358.25 799.695 357.55C799.695 355.497 798.995 353.887 797.595 352.72C796.195 351.553 794.632 350.97 792.905 350.97ZM809.534 381.21V379.6L810.654 379.46C812.008 379.273 813.034 379.063 813.734 378.83C814.481 378.55 814.994 377.967 815.274 377.08C815.554 376.147 815.694 374.63 815.694 372.53V357.97C815.694 356.15 815.438 354.82 814.924 353.98C814.458 353.14 813.758 352.627 812.824 352.44C811.891 352.207 810.794 352.09 809.534 352.09V350.48C811.448 350.48 813.291 350.41 815.064 350.27C816.838 350.13 818.681 349.92 820.594 349.64L819.824 357.69H820.104C821.131 354.563 822.391 352.37 823.884 351.11C825.378 349.85 826.988 349.22 828.714 349.22C830.674 349.22 831.981 349.71 832.634 350.69C833.288 351.623 833.614 352.533 833.614 353.42C833.614 354.447 833.311 355.287 832.704 355.94C832.098 356.593 831.281 356.92 830.254 356.92C829.274 356.92 828.528 356.687 828.014 356.22C827.501 355.753 827.244 355.217 827.244 354.61C827.244 354.143 827.291 353.7 827.384 353.28C827.524 352.86 827.594 352.533 827.594 352.3C827.594 351.833 827.268 351.6 826.614 351.6C825.961 351.6 825.261 351.903 824.514 352.51C823.814 353.117 823.208 353.957 822.694 355.03C822.274 355.917 821.878 356.897 821.504 357.97C821.131 359.043 820.828 360.21 820.594 361.47V372.53C820.594 374.63 820.734 376.147 821.014 377.08C821.294 377.967 821.784 378.55 822.484 378.83C823.231 379.063 824.281 379.273 825.634 379.46L826.754 379.6V381.21L818.144 381L809.534 381.21Z" fill="#0C1431"/>
<path d="M578.808 71.495C577.668 71.495 576.693 71.36 575.883 71.09C575.103 70.85 574.488 70.625 574.038 70.415C573.558 70.175 573.258 70.055 573.138 70.055C573.018 70.055 572.913 70.115 572.823 70.235C572.763 70.325 572.688 70.58 572.598 71H571.563L571.743 68.03L571.878 64.205H572.868L572.913 64.97C572.973 65.81 573.243 66.65 573.723 67.49C574.233 68.33 574.923 69.035 575.793 69.605C576.663 70.175 577.668 70.46 578.808 70.46C580.038 70.46 581.028 70.145 581.778 69.515C582.528 68.885 582.903 68.015 582.903 66.905C582.903 65.945 582.513 65.135 581.733 64.475C580.983 63.815 579.933 63.23 578.583 62.72L576.963 62.09C575.403 61.49 574.218 60.74 573.408 59.84C572.628 58.94 572.238 57.785 572.238 56.375C572.238 55.175 572.508 54.155 573.048 53.315C573.618 52.445 574.353 51.77 575.253 51.29C576.183 50.81 577.173 50.57 578.223 50.57C578.973 50.57 579.603 50.66 580.113 50.84C580.653 51.02 581.103 51.2 581.463 51.38C581.763 51.53 582.018 51.605 582.228 51.605C582.528 51.605 582.768 51.29 582.948 50.66L583.938 50.705L583.758 53.63V56.78H582.723C582.513 55.37 582.033 54.155 581.283 53.135C580.533 52.085 579.453 51.56 578.043 51.56C577.053 51.56 576.213 51.875 575.523 52.505C574.863 53.135 574.533 53.93 574.533 54.89C574.533 55.82 574.878 56.6 575.568 57.23C576.288 57.83 577.263 58.37 578.493 58.85L580.248 59.525C582.078 60.215 583.338 61.055 584.028 62.045C584.748 63.005 585.108 64.16 585.108 65.51C585.108 67.1 584.568 68.495 583.488 69.695C582.408 70.895 580.848 71.495 578.808 71.495ZM587.301 71.135V70.1L588.021 70.01C588.891 69.89 589.551 69.755 590.001 69.605C590.481 69.425 590.811 69.05 590.991 68.48C591.171 67.88 591.261 66.905 591.261 65.555V43.595C591.261 42.035 590.931 41.045 590.271 40.625C589.641 40.175 588.756 39.95 587.616 39.95H587.301V38.915C588.531 38.915 589.716 38.885 590.856 38.825C591.996 38.735 593.181 38.585 594.411 38.375V54.485C595.101 53.465 596.076 52.565 597.336 51.785C598.596 50.975 600.066 50.57 601.746 50.57C603.786 50.57 605.391 51.095 606.561 52.145C607.761 53.165 608.361 54.635 608.361 56.555V65.555C608.361 66.905 608.451 67.88 608.631 68.48C608.811 69.05 609.126 69.425 609.576 69.605C610.056 69.755 610.731 69.89 611.601 70.01L612.321 70.1V71.135L606.786 71L601.251 71.135V70.1L601.971 70.01C602.841 69.89 603.501 69.755 603.951 69.605C604.431 69.425 604.761 69.05 604.941 68.48C605.121 67.88 605.211 66.905 605.211 65.555V56.555C605.211 55.055 604.821 53.915 604.041 53.135C603.261 52.325 602.166 51.92 600.756 51.92C599.676 51.92 598.701 52.175 597.831 52.685C596.961 53.165 596.241 53.765 595.671 54.485C595.101 55.205 594.681 55.895 594.411 56.555V65.555C594.411 66.905 594.501 67.88 594.681 68.48C594.861 69.05 595.176 69.425 595.626 69.605C596.106 69.755 596.781 69.89 597.651 70.01L598.371 70.1V71.135L592.836 71L587.301 71.135ZM625.192 71.495C623.272 71.495 621.517 71.03 619.927 70.1C618.367 69.17 617.122 67.925 616.192 66.365C615.292 64.775 614.842 63.02 614.842 61.1C614.842 59.12 615.292 57.335 616.192 55.745C617.122 54.155 618.367 52.895 619.927 51.965C621.517 51.035 623.272 50.57 625.192 50.57C627.142 50.57 628.897 51.035 630.457 51.965C632.017 52.895 633.247 54.155 634.147 55.745C635.077 57.335 635.542 59.12 635.542 61.1C635.542 63.02 635.077 64.775 634.147 66.365C633.247 67.925 632.017 69.17 630.457 70.1C628.897 71.03 627.142 71.495 625.192 71.495ZM625.192 70.37C626.812 70.37 628.117 69.965 629.107 69.155C630.097 68.315 630.817 67.205 631.267 65.825C631.717 64.415 631.942 62.84 631.942 61.1C631.942 59.3 631.717 57.695 631.267 56.285C630.817 54.875 630.097 53.765 629.107 52.955C628.117 52.115 626.812 51.695 625.192 51.695C623.572 51.695 622.267 52.115 621.277 52.955C620.287 53.765 619.567 54.875 619.117 56.285C618.667 57.695 618.442 59.3 618.442 61.1C618.442 62.84 618.667 64.415 619.117 65.825C619.567 67.205 620.287 68.315 621.277 69.155C622.267 69.965 623.572 70.37 625.192 70.37ZM638.369 83.735V82.7L639.089 82.61C639.959 82.49 640.619 82.34 641.069 82.16C641.549 82.01 641.879 81.635 642.059 81.035C642.239 80.465 642.329 79.505 642.329 78.155V55.925C642.329 54.845 642.164 54.065 641.834 53.585C641.534 53.075 641.084 52.76 640.484 52.64C639.884 52.49 639.179 52.415 638.369 52.415V51.38C639.599 51.38 640.784 51.32 641.924 51.2C643.064 51.08 644.249 50.915 645.479 50.705L645.164 53.765C646.004 52.805 646.964 52.04 648.044 51.47C649.154 50.87 650.384 50.57 651.734 50.57C653.474 50.57 655.019 51.035 656.369 51.965C657.749 52.895 658.844 54.155 659.654 55.745C660.464 57.335 660.869 59.12 660.869 61.1C660.869 63.02 660.464 64.775 659.654 66.365C658.844 67.925 657.734 69.17 656.324 70.1C654.944 71.03 653.354 71.495 651.554 71.495C650.294 71.495 649.139 71.24 648.089 70.73C647.039 70.19 646.169 69.59 645.479 68.93V78.155C645.479 79.505 645.569 80.465 645.749 81.035C645.929 81.635 646.244 82.01 646.694 82.16C647.174 82.34 647.849 82.49 648.719 82.61L649.439 82.7V83.735L643.904 83.6L638.369 83.735ZM651.194 51.92C649.964 51.92 648.869 52.22 647.909 52.82C646.979 53.39 646.169 54.095 645.479 54.935V67.085C645.989 67.865 646.754 68.57 647.774 69.2C648.794 69.83 649.919 70.145 651.149 70.145C652.529 70.145 653.669 69.755 654.569 68.975C655.469 68.165 656.144 67.085 656.594 65.735C657.044 64.355 657.269 62.81 657.269 61.1C657.269 59.36 657.044 57.8 656.594 56.42C656.144 55.04 655.469 53.945 654.569 53.135C653.699 52.325 652.574 51.92 651.194 51.92ZM665.615 62.09V60.29H677.63V62.09H665.615ZM681.577 71.135V70.1L682.297 70.01C683.167 69.89 683.827 69.755 684.277 69.605C684.757 69.425 685.087 69.05 685.267 68.48C685.447 67.88 685.537 66.905 685.537 65.555V56.06C685.537 54.5 685.207 53.51 684.547 53.09C683.917 52.64 683.032 52.415 681.892 52.415H681.577V51.38C682.807 51.38 683.992 51.35 685.132 51.29C686.272 51.2 687.457 51.05 688.687 50.84V65.555C688.687 66.905 688.777 67.88 688.957 68.48C689.137 69.05 689.452 69.425 689.902 69.605C690.382 69.755 691.057 69.89 691.927 70.01L692.647 70.1V71.135L687.112 71L681.577 71.135ZM686.572 45.575C685.792 45.575 685.177 45.305 684.727 44.765C684.277 44.225 684.052 43.58 684.052 42.83C684.052 42.05 684.277 41.405 684.727 40.895C685.177 40.355 685.792 40.085 686.572 40.085C687.442 40.085 688.072 40.355 688.462 40.895C688.882 41.405 689.092 42.05 689.092 42.83C689.092 43.58 688.882 44.225 688.462 44.765C688.072 45.305 687.442 45.575 686.572 45.575ZM694.365 71.135V70.1L695.085 70.01C695.955 69.89 696.615 69.755 697.065 69.605C697.545 69.425 697.875 69.05 698.055 68.48C698.235 67.88 698.325 66.905 698.325 65.555V56.06C698.325 54.5 697.995 53.51 697.335 53.09C696.705 52.64 695.82 52.415 694.68 52.415H694.365V51.38C695.595 51.38 696.78 51.35 697.92 51.29C699.06 51.2 700.245 51.05 701.475 50.84V54.485C702.165 53.465 703.14 52.565 704.4 51.785C705.66 50.975 707.13 50.57 708.81 50.57C710.85 50.57 712.455 51.095 713.625 52.145C714.825 53.165 715.425 54.635 715.425 56.555V65.555C715.425 66.905 715.515 67.88 715.695 68.48C715.875 69.05 716.19 69.425 716.64 69.605C717.12 69.755 717.795 69.89 718.665 70.01L719.385 70.1V71.135L713.85 71L708.315 71.135V70.1L709.035 70.01C709.905 69.89 710.565 69.755 711.015 69.605C711.495 69.425 711.825 69.05 712.005 68.48C712.185 67.88 712.275 66.905 712.275 65.555V56.555C712.275 55.055 711.885 53.915 711.105 53.135C710.325 52.325 709.23 51.92 707.82 51.92C706.74 51.92 705.765 52.175 704.895 52.685C704.025 53.165 703.305 53.765 702.735 54.485C702.165 55.205 701.745 55.895 701.475 56.555V65.555C701.475 66.905 701.565 67.88 701.745 68.48C701.925 69.05 702.24 69.425 702.69 69.605C703.17 69.755 703.845 69.89 704.715 70.01L705.435 70.1V71.135L699.9 71L694.365 71.135ZM729.294 71L721.959 54.8C721.689 54.2 721.359 53.69 720.969 53.27C720.579 52.85 719.994 52.595 719.214 52.505L718.404 52.415V51.38L723.039 51.515L727.629 51.38V52.415L726.909 52.505C726.249 52.595 725.784 52.76 725.514 53C725.244 53.21 725.109 53.51 725.109 53.9C725.109 54.23 725.229 54.68 725.469 55.25L731.139 67.76L736.404 55.43C736.674 54.83 736.809 54.335 736.809 53.945C736.809 53.165 736.119 52.685 734.739 52.505L733.974 52.415V51.38L738.024 51.515L741.804 51.38V52.415L740.769 52.55C739.929 52.67 739.284 53 738.834 53.54C738.384 54.05 737.934 54.83 737.484 55.88L731.004 71H729.294ZM752.315 71.495C750.335 71.495 748.61 71.075 747.14 70.235C745.67 69.365 744.515 68.18 743.675 66.68C742.865 65.15 742.46 63.41 742.46 61.46C742.46 59.36 742.91 57.5 743.81 55.88C744.71 54.23 745.91 52.94 747.41 52.01C748.94 51.05 750.62 50.57 752.45 50.57C754.76 50.57 756.56 51.305 757.85 52.775C759.17 54.245 759.83 56.18 759.83 58.58C759.83 58.94 759.815 59.24 759.785 59.48C759.755 59.72 759.725 59.885 759.695 59.975H746.105C746.075 60.395 746.06 60.815 746.06 61.235C746.06 62.825 746.315 64.31 746.825 65.69C747.335 67.04 748.1 68.12 749.12 68.93C750.17 69.74 751.445 70.145 752.945 70.145C754.355 70.145 755.6 69.755 756.68 68.975C757.79 68.165 758.645 66.98 759.245 65.42L760.325 65.825C759.065 69.605 756.395 71.495 752.315 71.495ZM752.45 51.695C750.59 51.695 749.135 52.355 748.085 53.675C747.065 54.995 746.435 56.75 746.195 58.94H751.91C753.26 58.94 754.28 58.79 754.97 58.49C755.69 58.16 756.17 57.77 756.41 57.32C756.68 56.84 756.815 56.375 756.815 55.925C756.815 54.605 756.365 53.57 755.465 52.82C754.565 52.07 753.56 51.695 752.45 51.695ZM763.14 71.135V70.1L763.86 70.01C764.73 69.89 765.39 69.755 765.84 69.605C766.32 69.425 766.65 69.05 766.83 68.48C767.01 67.88 767.1 66.905 767.1 65.555V56.06C767.1 54.5 766.77 53.51 766.11 53.09C765.48 52.64 764.595 52.415 763.455 52.415H763.14V51.38C764.37 51.38 765.555 51.35 766.695 51.29C767.835 51.2 769.02 51.05 770.25 50.84V54.485C770.94 53.465 771.915 52.565 773.175 51.785C774.435 50.975 775.905 50.57 777.585 50.57C779.625 50.57 781.23 51.095 782.4 52.145C783.6 53.165 784.2 54.635 784.2 56.555V65.555C784.2 66.905 784.29 67.88 784.47 68.48C784.65 69.05 784.965 69.425 785.415 69.605C785.895 69.755 786.57 69.89 787.44 70.01L788.16 70.1V71.135L782.625 71L777.09 71.135V70.1L777.81 70.01C778.68 69.89 779.34 69.755 779.79 69.605C780.27 69.425 780.6 69.05 780.78 68.48C780.96 67.88 781.05 66.905 781.05 65.555V56.555C781.05 55.055 780.66 53.915 779.88 53.135C779.1 52.325 778.005 51.92 776.595 51.92C775.515 51.92 774.54 52.175 773.67 52.685C772.8 53.165 772.08 53.765 771.51 54.485C770.94 55.205 770.52 55.895 770.25 56.555V65.555C770.25 66.905 770.34 67.88 770.52 68.48C770.7 69.05 771.015 69.425 771.465 69.605C771.945 69.755 772.62 69.89 773.49 70.01L774.21 70.1V71.135L768.675 71L763.14 71.135ZM797.833 71.495C796.363 71.495 795.163 71.06 794.233 70.19C793.333 69.29 792.883 67.835 792.883 65.825V52.505H789.553V51.38L790.768 51.29C791.998 51.2 792.928 50.705 793.558 49.805C794.218 48.875 794.653 47.585 794.863 45.935H796.033V51.38H801.793V52.505H796.033V66.005C796.033 68.645 796.963 69.965 798.823 69.965C799.603 69.965 800.233 69.71 800.713 69.2C801.193 68.66 801.628 68 802.018 67.22L803.008 67.715C802.828 68.165 802.603 68.585 802.333 68.975C802.093 69.335 801.853 69.65 801.613 69.92C801.103 70.49 800.518 70.895 799.858 71.135C799.228 71.375 798.553 71.495 797.833 71.495ZM815.388 71.495C813.468 71.495 811.713 71.03 810.123 70.1C808.563 69.17 807.318 67.925 806.388 66.365C805.488 64.775 805.038 63.02 805.038 61.1C805.038 59.12 805.488 57.335 806.388 55.745C807.318 54.155 808.563 52.895 810.123 51.965C811.713 51.035 813.468 50.57 815.388 50.57C817.338 50.57 819.093 51.035 820.653 51.965C822.213 52.895 823.443 54.155 824.343 55.745C825.273 57.335 825.738 59.12 825.738 61.1C825.738 63.02 825.273 64.775 824.343 66.365C823.443 67.925 822.213 69.17 820.653 70.1C819.093 71.03 817.338 71.495 815.388 71.495ZM815.388 70.37C817.008 70.37 818.313 69.965 819.303 69.155C820.293 68.315 821.013 67.205 821.463 65.825C821.913 64.415 822.138 62.84 822.138 61.1C822.138 59.3 821.913 57.695 821.463 56.285C821.013 54.875 820.293 53.765 819.303 52.955C818.313 52.115 817.008 51.695 815.388 51.695C813.768 51.695 812.463 52.115 811.473 52.955C810.483 53.765 809.763 54.875 809.313 56.285C808.863 57.695 808.638 59.3 808.638 61.1C808.638 62.84 808.863 64.415 809.313 65.825C809.763 67.205 810.483 68.315 811.473 69.155C812.463 69.965 813.768 70.37 815.388 70.37ZM829.014 71.135V70.1L829.734 70.01C830.604 69.89 831.264 69.755 831.714 69.605C832.194 69.425 832.524 69.05 832.704 68.48C832.884 67.88 832.974 66.905 832.974 65.555V56.195C832.974 55.025 832.809 54.17 832.479 53.63C832.179 53.09 831.729 52.76 831.129 52.64C830.529 52.49 829.824 52.415 829.014 52.415V51.38C830.244 51.38 831.429 51.335 832.569 51.245C833.709 51.155 834.894 51.02 836.124 50.84L835.629 56.015H835.809C836.469 54.005 837.279 52.595 838.239 51.785C839.199 50.975 840.234 50.57 841.344 50.57C842.604 50.57 843.444 50.885 843.864 51.515C844.284 52.115 844.494 52.7 844.494 53.27C844.494 53.93 844.299 54.47 843.909 54.89C843.519 55.31 842.994 55.52 842.334 55.52C841.704 55.52 841.224 55.37 840.894 55.07C840.564 54.77 840.399 54.425 840.399 54.035C840.399 53.735 840.429 53.45 840.489 53.18C840.579 52.91 840.624 52.7 840.624 52.55C840.624 52.25 840.414 52.1 839.994 52.1C839.574 52.1 839.124 52.295 838.644 52.685C838.194 53.075 837.804 53.615 837.474 54.305C837.204 54.875 836.949 55.505 836.709 56.195C836.469 56.885 836.274 57.635 836.124 58.445V65.555C836.124 66.905 836.214 67.88 836.394 68.48C836.574 69.05 836.889 69.425 837.339 69.605C837.819 69.755 838.494 69.89 839.364 70.01L840.084 70.1V71.135L834.549 71L829.014 71.135ZM848.888 84.23C847.868 84.23 847.103 83.975 846.593 83.465C846.083 82.985 845.828 82.445 845.828 81.845C845.828 81.245 846.053 80.735 846.503 80.315C846.923 79.925 847.463 79.73 848.123 79.73C848.543 79.73 848.873 79.79 849.113 79.91C849.353 80.06 849.578 80.21 849.788 80.36C849.998 80.51 850.238 80.66 850.508 80.81C850.778 80.99 851.093 81.08 851.453 81.08C851.993 81.08 852.548 80.87 853.118 80.45C853.718 80.03 854.333 79.16 854.963 77.84L857.933 71.45L850.463 55.07C850.163 54.38 849.833 53.81 849.473 53.36C849.113 52.91 848.558 52.64 847.808 52.55L846.773 52.415V51.38L851.453 51.515L855.998 51.38V52.415L855.368 52.505C854.108 52.685 853.478 53.15 853.478 53.9C853.478 54.26 853.643 54.8 853.973 55.52L859.598 67.85L865.223 55.745C865.553 54.995 865.718 54.41 865.718 53.99C865.718 53.18 864.983 52.685 863.513 52.505L862.793 52.415V51.38L867.113 51.515L870.713 51.38V52.415L870.038 52.505C868.928 52.655 868.118 53.06 867.608 53.72C867.128 54.38 866.678 55.19 866.258 56.15L856.088 78.335C855.608 79.355 855.038 80.315 854.378 81.215C853.748 82.115 852.983 82.835 852.083 83.375C851.213 83.945 850.148 84.23 848.888 84.23Z" fill="white"/>
<path d="M569.268 78.515H870.713V80.09H569.268V78.515Z" fill="white"/>
</g>
<defs>
<radialGradient id="paint0_radial_26_47" cx="0" cy="0" r="1" gradientUnits="userSpaceOnUse" gradientTransform="translate(721.5 767) rotate(90) scale(140.329 184.368)">
<stop stop-color="#F1E71D" stop-opacity="0.22"/>
<stop offset="0.648156" stop-color="#F1E71D" stop-opacity="0"/>
</radialGradient>
<clipPath id="clip0_26_47">
<rect width="1440" height="1024" fill="white"/>
</clipPath>
</defs>
</svg>
